<?xml version="1.0" encoding="iso-8859-1"?>
<!-- Generator: Adobe Illustrator 19.0.0, SVG Export Plug-In . SVG Version: 6.00 Build 0)  -->
<svg xmlns="http://www.w3.org/2000/svg" xmlns:xlink="http://www.w3.org/1999/xlink" version="1.1" id="Capa_1" x="0px" y="0px" viewBox="0 0 465 465" style="enable-background:new 0 0 465 465;" xml:space="preserve" width="512" height="512">
	<g>
		<path style="fill:#FFC9C2;" d="M232.5,139.31l-93.19,93.19l-36.77-36.77H58.8c-28.33,0-51.3-22.97-51.3-51.3   c0-28.34,22.97-51.31,51.3-51.31h34.32V58.8c0-28.33,22.97-51.3,51.31-51.3c28.33,0,51.3,22.97,51.3,51.3v43.74L232.5,139.31z"/>
		<path style="fill:#FFC9C2;" d="M406.2,269.27c28.33,0,51.3,22.97,51.3,51.3c0,28.34-22.97,51.31-51.3,51.31h-34.32v34.32   c0,28.33-22.97,51.3-51.31,51.3c-28.33,0-51.3-22.97-51.3-51.3v-43.74l-36.77-36.77l93.19-93.19l36.77,36.77H406.2z"/>
		<path style="fill:#C7A395;" d="M406.2,93.12c28.33,0,51.3,22.97,51.3,51.31c0,28.33-22.97,51.3-51.3,51.3h-43.74l-36.77,36.77   l-93.19,93.19l-36.77,36.77v43.74c0,28.33-22.97,51.3-51.3,51.3c-28.34,0-51.31-22.97-51.31-51.3v-34.32H58.8   c-28.33,0-51.3-22.97-51.3-51.31c0-28.33,22.97-51.3,51.3-51.3h43.74l36.77-36.77l93.19-93.19l36.77-36.77V58.8   c0-28.33,22.97-51.3,51.3-51.3c28.34,0,51.31,22.97,51.31,51.3v34.32H406.2z"/>
		<path style="fill:#591200;" d="M295.946,135.629c-4.411,0-8,3.589-8,8s3.589,8,8,8s8-3.589,8-8S300.357,135.629,295.946,135.629z"/>
		<path style="fill:#591200;" d="M281.703,173.055c-4.411,0-8,3.589-8,8s3.589,8,8,8s8-3.589,8-8S286.114,173.055,281.703,173.055z"/>
		<path style="fill:#591200;" d="M58.803,312.573c-4.411,0-8,3.589-8,8s3.589,8,8,8s8-3.589,8-8S63.214,312.573,58.803,312.573z"/>
		<path style="fill:#591200;" d="M58.802,203.229h40.633l13.36,13.361c1.465,1.464,3.385,2.197,5.304,2.197s3.839-0.732,5.304-2.197   c2.929-2.929,2.929-7.678,0-10.606l-15.558-15.558c-1.407-1.407-3.314-2.197-5.304-2.197H58.802   C34.649,188.229,15,168.58,15,144.427s19.649-43.802,43.802-43.802h34.322c4.143,0,7.5-3.358,7.5-7.5V58.802   c0-24.153,19.649-43.802,43.803-43.802s43.803,19.649,43.803,43.802v43.739c0,1.989,0.79,3.897,2.196,5.303l15.558,15.558   c2.93,2.929,7.678,2.929,10.607,0c2.929-2.929,2.929-7.678,0-10.606l-13.361-13.361V58.802C203.229,26.378,176.851,0,144.427,0   S85.624,26.378,85.624,58.802v26.822H58.802C26.378,85.625,0,112.003,0,144.427S26.378,203.229,58.802,203.229z"/>
		<path style="fill:#591200;" d="M406.197,261.771l-40.633,0l-29.27-29.27l29.271-29.271h40.633   c32.424,0,58.802-26.379,58.802-58.803s-26.378-58.802-58.802-58.802h-26.822V58.802C379.376,26.378,352.997,0,320.573,0   s-58.803,26.378-58.803,58.802v40.633L99.436,261.771l-40.633,0c-15.707,0-30.475,6.117-41.58,17.223   C6.116,290.1,0,304.867,0,320.573c0,32.424,26.379,58.802,58.803,58.802h26.822v26.822c0,32.424,26.378,58.802,58.802,58.802   s58.803-26.378,58.803-58.802v-40.633l29.27-29.27l29.271,29.27v40.633c0,32.424,26.379,58.802,58.803,58.802   s58.802-26.378,58.802-58.802v-26.822h26.822c32.424,0,58.803-26.378,58.803-58.802c0-15.707-6.116-30.473-17.223-41.58   S421.904,261.771,406.197,261.771z M190.426,357.155c-1.406,1.406-2.196,3.314-2.196,5.303v43.739   c0,24.153-19.649,43.802-43.803,43.802c-24.152,0-43.802-19.649-43.802-43.802v-34.322c0-4.142-3.357-7.5-7.5-7.5H58.803   C34.649,364.375,15,344.726,15,320.573c0-11.7,4.557-22.7,12.829-30.973c8.273-8.273,19.273-12.829,30.974-12.829l43.739,0   c1.989,0,3.896-0.79,5.304-2.197l166.729-166.729c1.406-1.406,2.196-3.314,2.196-5.303V58.802C276.771,34.649,296.42,15,320.573,15   s43.803,19.649,43.803,43.802v34.322c0,4.142,3.357,7.5,7.5,7.5h34.322c24.152,0,43.802,19.649,43.802,43.802   s-19.649,43.803-43.802,43.803h-43.739c-1.989,0-3.896,0.79-5.304,2.197l-36.762,36.762c-0.017,0.017-93.195,93.195-93.195,93.195   C227.195,320.386,190.426,357.155,190.426,357.155z M406.197,364.375h-34.322c-4.143,0-7.5,3.358-7.5,7.5v34.322   c0,24.153-19.649,43.802-43.802,43.802c-24.153,0-43.803-19.649-43.803-43.802v-43.739c0-1.989-0.79-3.897-2.196-5.303   l-31.468-31.468l82.581-82.581l31.467,31.467c1.407,1.407,3.314,2.197,5.304,2.197l43.739,0c11.7,0,22.7,4.556,30.974,12.829   c8.272,8.273,12.829,19.273,12.829,30.973C450,344.726,430.351,364.375,406.197,364.375z"/>
	</g>
</svg>
